<?xml version="1.0" encoding="utf-8"?>
<!-- Generator: Adobe Illustrator 28.1.0, SVG Export Plug-In . SVG Version: 6.00 Build 0)  -->
<svg version="1.1" xmlns="http://www.w3.org/2000/svg" xmlns:xlink="http://www.w3.org/1999/xlink" x="0px" y="0px"
	 viewBox="0 0 2000 2000" style="enable-background:new 0 0 2000 2000;" xml:space="preserve">
<style type="text/css">
	.st0{display:none;}
	.st1{display:inline;fill:#76B041;}
	.st2{fill:#E4572E;}
	.st3{fill:#FFFFFF;}
	.st4{fill:none;stroke:#231F20;stroke-width:7;stroke-miterlimit:10;}
</style>
<g id="Layer_1" class="st0">
	<path class="st1" d="M527.3,298.9V572H254.2V298.9H527.3 M566.3,259.9H215.1v351.2h351.2V259.9L566.3,259.9z"/>
	<path class="st1" d="M928.4,298.9V572H655.2V298.9H928.4 M967.4,259.9H616.2v351.2h351.2V259.9L967.4,259.9z"/>
	<path class="st1" d="M1329.5,298.9V572h-273.2V298.9H1329.5 M1368.5,259.9h-351.2v351.2h351.2V259.9L1368.5,259.9z"/>
	<path class="st1" d="M1730.6,298.9V572h-273.2V298.9H1730.6 M1769.6,259.9h-351.2v351.2h351.2V259.9L1769.6,259.9z"/>
	<path class="st1" d="M527.3,694v273.2H254.2V694H527.3 M566.3,655H215.1v351.2h351.2V655L566.3,655z"/>
	<path class="st1" d="M928.4,694v273.2H655.2V694H928.4 M967.4,655H616.2v351.2h351.2V655L967.4,655z"/>
	<path class="st1" d="M1329.5,694v273.2h-273.2V694H1329.5 M1368.5,655h-351.2v351.2h351.2V655L1368.5,655z"/>
	<path class="st1" d="M1730.6,694v273.2h-273.2V694H1730.6 M1769.6,655h-351.2v351.2h351.2V655L1769.6,655z"/>
	<path class="st1" d="M527.3,1103.7v273.2H254.2v-273.2H527.3 M566.3,1064.7H215.1v351.2h351.2V1064.7L566.3,1064.7z"/>
	<path class="st1" d="M928.4,1103.7v273.2H655.2v-273.2H928.4 M967.4,1064.7H616.2v351.2h351.2V1064.7L967.4,1064.7z"/>
	<path class="st1" d="M1329.5,1103.7v273.2h-273.2v-273.2H1329.5 M1368.5,1064.7h-351.2v351.2h351.2V1064.7L1368.5,1064.7z"/>
	<path class="st1" d="M1730.6,1103.7v273.2h-273.2v-273.2H1730.6 M1769.6,1064.7h-351.2v351.2h351.2V1064.7L1769.6,1064.7z"/>
	<path class="st1" d="M527.3,1508.6v273.2H254.2v-273.2H527.3 M566.3,1469.5H215.1v351.2h351.2V1469.5L566.3,1469.5z"/>
	<path class="st1" d="M928.4,1508.6v273.2H655.2v-273.2H928.4 M967.4,1469.5H616.2v351.2h351.2V1469.5L967.4,1469.5z"/>
	<path class="st1" d="M1329.5,1508.6v273.2h-273.2v-273.2H1329.5 M1368.5,1469.5h-351.2v351.2h351.2V1469.5L1368.5,1469.5z"/>
	<path class="st1" d="M1730.6,1508.6v273.2h-273.2v-273.2H1730.6 M1769.6,1469.5h-351.2v351.2h351.2V1469.5L1769.6,1469.5z"/>
</g>
<g id="Layer_2">
	<path class="st2" d="M330.7,481v274.1H56.6V481H330.7 M369.9,441.9H17.4v352.5h352.5V441.9L369.9,441.9z"/>
	<g>
		<g>
			<path class="st3" d="M146.6,675.6v-120h43c9.9,0,17.8,1.2,23.8,3.7s10.4,6.1,13.1,11c2.8,4.9,4.1,11,4.1,18.2
				c0,5.8-1.3,10.8-3.8,15.2c-2.5,4.4-6,7.8-10.3,10.3c-4.3,2.5-9.3,3.7-14.8,3.7l0.5-5.6c6.9,0,12.7,1.3,17.3,3.9
				c4.6,2.6,8,6.1,10.4,10.6c2.3,4.5,3.5,9.5,3.5,15.2c0,11.3-3.4,19.7-10.3,25.4s-17,8.5-30.4,8.5H146.6z M172.3,568.8v92.3
				l-9.2-10.2h29.3c4.6,0,8.2-1.1,10.8-3.3c2.6-2.2,4-5.3,4-9.2c0-4.2-1.3-7.4-3.8-9.5c-2.5-2.1-6.1-3.2-10.7-3.2h-29.6v-22.2h27
				c4.7,0,8.2-0.9,10.6-2.8c2.3-1.9,3.5-4.8,3.5-8.8c0-3.6-1.2-6.5-3.6-8.5c-2.4-2.1-5.9-3.1-10.5-3.1h-26.3L172.3,568.8z"/>
		</g>
	</g>
	<path class="st2" d="M733.3,481v274.1H459.1V481H733.3 M772.4,441.9H420v352.5h352.5V441.9L772.4,441.9z"/>
	<g>
		<g>
			<path class="st3" d="M540.5,675.6l42.6-120h28.4l40.5,120H626l-32.8-102.4h8.5l-35.2,102.4H540.5z M566.8,629.4h56.4v23.8h-56.4
				V629.4z"/>
		</g>
	</g>
	<path class="st2" d="M1135.8,481v274.1H861.7V481H1135.8 M1174.9,441.9H822.5v352.5h352.5V441.9L1174.9,441.9z"/>
	<g>
		<g>
			<path class="st3" d="M1005.8,677.7c-12.5,0-23.2-2.6-32.3-7.9c-9.1-5.3-16.2-12.6-21.1-21.9c-5-9.3-7.5-20.1-7.5-32.2
				c0-9,1.5-17.4,4.5-24.9c3-7.6,7.2-14.2,12.6-19.7c5.4-5.6,11.8-9.9,19.3-12.9c7.5-3,15.7-4.5,24.6-4.5c14.1,0,25.7,3.1,34.7,9.2
				c9,6.1,16,14.8,20.8,26.1l-23.4,9c-3.9-6.7-8.4-11.6-13.7-14.7c-5.2-3.1-11.4-4.7-18.4-4.7c-6.7,0-12.7,1.6-17.9,4.7
				c-5.2,3.1-9.3,7.4-12.3,13c-3,5.5-4.5,12-4.5,19.6c0,7.4,1.5,13.9,4.5,19.5c3,5.6,7.1,9.9,12.3,13c5.2,3.1,11.2,4.6,17.9,4.6
				c7,0,13.2-1.5,18.4-4.6c5.2-3.1,9.8-7.9,13.7-14.6l23.4,9c-4.8,11.3-11.7,20-20.8,26.1C1031.4,674.7,1019.9,677.7,1005.8,677.7z"
				/>
		</g>
	</g>
	<path class="st2" d="M1538.3,481v274.1h-274.1V481H1538.3 M1577.5,441.9H1225v352.5h352.5V441.9L1577.5,441.9z"/>
	<g>
		<g>
			<path class="st3" d="M1378.6,580.1l9-10.4v91.8l-9.9-10.4h60.4v24.5h-76.3v-120h76.3v24.5H1378.6z M1379.2,627.7v-24.5h49.3v24.5
				H1379.2z"/>
		</g>
	</g>
	<path class="st2" d="M1940.8,481v274.1h-274.1V481H1940.8 M1980,441.9h-352.5v352.5H1980V441.9L1980,441.9z"/>
	<g>
		<g>
			<path class="st3" d="M1756.7,675.6v-120h41.9c12.5,0,23.2,2.4,32.2,7.1c9,4.8,15.9,11.6,20.8,20.6c4.9,9,7.3,19.8,7.3,32.3
				c0,12.7-2.4,23.5-7.3,32.4c-4.9,8.9-11.8,15.7-20.9,20.4c-9,4.7-19.8,7-32.2,7H1756.7z M1782.4,660.5l-10.2-9.7h24.5
				c7.2,0,13.4-1.2,18.8-3.6c5.3-2.4,9.5-6.2,12.5-11.4c3-5.2,4.5-11.9,4.5-20.1c0-8.1-1.5-14.7-4.4-19.9c-2.9-5.2-7.1-9-12.4-11.5
				c-5.3-2.5-11.6-3.8-18.8-3.8H1771l11.5-7.6V660.5z"/>
		</g>
	</g>
	<path class="st2" d="M330.7,1151.7v274.1H56.6v-274.1H330.7 M369.9,1112.5H17.4V1465h352.5V1112.5L369.9,1112.5z"/>
	<g>
		<g>
			<path class="st3" d="M138,1346.3l42.6-120H209l40.5,120h-26.1l-32.8-102.4h8.5l-35.2,102.4H138z M164.2,1300.1h56.4v23.8h-56.4
				V1300.1z"/>
		</g>
	</g>
	<path class="st2" d="M733.3,1151.7v274.1H459.1v-274.1H733.3 M772.4,1112.5H420V1465h352.5V1112.5L772.4,1112.5z"/>
	<g>
		<g>
			<path class="st3" d="M549.1,1346.3v-120h43c9.9,0,17.8,1.2,23.8,3.7c6,2.5,10.4,6.1,13.1,11c2.8,4.9,4.1,11,4.1,18.2
				c0,5.8-1.3,10.8-3.8,15.2c-2.5,4.4-6,7.8-10.3,10.3c-4.3,2.5-9.3,3.7-14.8,3.7l0.5-5.6c6.9,0,12.7,1.3,17.3,3.9
				c4.6,2.6,8,6.1,10.4,10.6c2.3,4.5,3.5,9.5,3.5,15.2c0,11.3-3.4,19.7-10.3,25.4s-17,8.5-30.4,8.5H549.1z M574.9,1239.5v92.3
				l-9.2-10.2H595c4.6,0,8.2-1.1,10.8-3.3c2.6-2.2,4-5.3,4-9.2c0-4.2-1.3-7.4-3.8-9.5c-2.5-2.1-6.1-3.2-10.7-3.2h-29.6v-22.2h27
				c4.7,0,8.2-0.9,10.6-2.8c2.3-1.9,3.5-4.8,3.5-8.8c0-3.6-1.2-6.5-3.6-8.5c-2.4-2.1-5.9-3.1-10.5-3.1h-26.3L574.9,1239.5z"/>
		</g>
	</g>
	<path class="st2" d="M1135.8,1151.7v274.1H861.7v-274.1H1135.8 M1174.9,1112.5H822.5V1465h352.5V1112.5L1174.9,1112.5z"/>
	<g>
		<g>
			<path class="st3" d="M1005.8,1348.4c-12.5,0-23.2-2.6-32.3-7.9c-9.1-5.3-16.2-12.6-21.1-21.9c-5-9.3-7.5-20.1-7.5-32.2
				c0-9,1.5-17.4,4.5-24.9c3-7.6,7.2-14.2,12.6-19.7c5.4-5.6,11.8-9.9,19.3-12.9c7.5-3,15.7-4.5,24.6-4.5c14.1,0,25.7,3.1,34.7,9.2
				c9,6.1,16,14.8,20.8,26.1l-23.4,9c-3.9-6.7-8.4-11.6-13.7-14.7c-5.2-3.1-11.4-4.7-18.4-4.7c-6.7,0-12.7,1.6-17.9,4.7
				c-5.2,3.1-9.3,7.4-12.3,13c-3,5.5-4.5,12-4.5,19.6c0,7.4,1.5,13.9,4.5,19.5c3,5.6,7.1,9.9,12.3,13c5.2,3.1,11.2,4.6,17.9,4.6
				c7,0,13.2-1.5,18.4-4.6c5.2-3.1,9.8-7.9,13.7-14.6l23.4,9c-4.8,11.3-11.7,20-20.8,26.1
				C1031.4,1345.3,1019.9,1348.4,1005.8,1348.4z"/>
		</g>
	</g>
	<path class="st2" d="M1538.3,1151.7v274.1h-274.1v-274.1H1538.3 M1577.5,1112.5H1225V1465h352.5V1112.5L1577.5,1112.5z"/>
	<g>
		<g>
			<path class="st3" d="M1354.2,1346.3v-120h41.9c12.5,0,23.2,2.4,32.2,7.1c9,4.8,15.9,11.6,20.8,20.6c4.9,9,7.3,19.8,7.3,32.3
				c0,12.7-2.4,23.5-7.3,32.4c-4.9,8.9-11.8,15.7-20.9,20.4c-9,4.7-19.8,7-32.2,7H1354.2z M1379.9,1331.1l-10.2-9.7h24.5
				c7.2,0,13.4-1.2,18.8-3.6c5.3-2.4,9.5-6.2,12.5-11.4c3-5.2,4.5-11.9,4.5-20.1c0-8.1-1.5-14.7-4.4-19.9c-2.9-5.2-7.1-9-12.4-11.5
				c-5.3-2.5-11.6-3.8-18.8-3.8h-25.9l11.5-7.6V1331.1z"/>
		</g>
	</g>
	<path class="st2" d="M1940.8,1151.7v274.1h-274.1v-274.1H1940.8 M1980,1112.5h-352.5V1465H1980V1112.5L1980,1112.5z"/>
	<g>
		<g>
			<path class="st3" d="M1781.2,1250.7l9-10.4v91.8l-9.9-10.4h60.4v24.5h-76.3v-120h76.3v24.5H1781.2z M1781.7,1298.3v-24.5h49.3
				v24.5H1781.7z"/>
		</g>
	</g>
	<g>
		<g>
			<g>
				
					<rect x="1585" y="713.2" transform="matrix(0.5122 -0.8589 0.8589 0.5122 -34.1777 1839.2999)" class="st2" width="34.3" height="473.1"/>
			</g>
		</g>
		<g>
			<g>
				
					<rect x="1365.6" y="932.6" transform="matrix(0.8588 -0.5123 0.5123 0.8588 -260.336 954.8394)" class="st2" width="473.1" height="34.3"/>
			</g>
		</g>
	</g>
	<g>
		<g>
			<g>
				
					<rect x="366.1" y="713.2" transform="matrix(0.5122 -0.8589 0.8589 0.5122 -628.7462 792.4257)" class="st2" width="34.3" height="473.1"/>
			</g>
		</g>
		<g>
			<g>
				
					<rect x="146.7" y="932.6" transform="matrix(0.8588 -0.5123 0.5123 0.8588 -432.4231 330.4155)" class="st2" width="473.1" height="34.3"/>
			</g>
		</g>
	</g>
	<g>
		<rect x="976.8" y="821.2" class="st2" width="34.3" height="261.9"/>
	</g>
	<g>
		<path class="st4" d="M178.9,1014.6"/>
	</g>
</g>
</svg>
