<?xml version="1.0" encoding="UTF-8"?>
<svg id="Layer_3" data-name="Layer 3" xmlns="http://www.w3.org/2000/svg" viewBox="0 0 1963.44 1560.89">
  <defs>
    <style>
      .cls-1 {
        fill: #048ba8;
        stroke-width: 0px;
      }
    </style>
  </defs>
  <path class="cls-1" d="M256.79,712.8h44.11c13.25,0,23.56-3.32,30.92-9.95,7.35-6.63,11.03-15.97,11.03-28.03,0-12.77-3.68-22.36-11.03-28.75-7.36-6.39-17.54-9.58-30.56-9.58h-44.84l11.93-11.93v207.2h-52.79v-246.26h89.31c18.57,0,34.72,3.61,48.46,10.85,13.74,7.23,24.42,17.53,32.01,30.91s11.39,29.24,11.39,47.56-3.8,34.18-11.39,47.56c-7.59,13.38-18.32,23.62-32.18,30.73-13.87,7.11-29.96,10.67-48.28,10.67h-48.09v-50.99Z"/>
  <path class="cls-1" d="M943.01,645.83l18.44-21.34v188.4l-20.25-21.34h124.03v50.26h-156.58v-246.26h156.58v50.26h-122.23ZM944.1,743.46v-50.26h101.25v50.26h-101.25Z"/>
  <path class="cls-1" d="M1746.56,831.77l-134.88-182.61,22.78-6.15v188.76h-52.79v-246.26h48.1l131.99,179.36-20.25,3.62v-182.97h52.79v246.26h-47.73Z"/>
  <path class="cls-1" d="M345.29,1186.41c-15.56,0-31.67-3.17-47.76-9.7-53.53-21.72-82.59-80.24-67.61-136.12,2.74-10.22,6.58-19.96,10.75-29.41H25.11c-13.87,0-25.11-11.24-25.11-25.11V349.09c0-13.07,10.03-23.96,23.06-25.03,2.54-.21,5.01-.47,7.43-.72,5.87-.61,11.98-.93,18.45-1.23l171.6.4c137.38.35,279.41.72,419.12.59h.09c10.37,0,25.39,1.31,36.44,12.52,10.96,11.09,12.18,25.88,12.03,37.51-.66,48.7-.55,98.32-.45,146.31.04,21.51.09,43.01.07,64.52,0,5.11-.35,10.23-.78,16.08-.18,2.52-.38,5.2-.55,8.13-.5,8.54-5.32,16.23-12.78,20.42-7.46,4.19-16.54,4.29-24.09.26-5.42-2.88-10.55-5.76-15.53-8.56-9.82-5.51-18.3-10.28-26.9-13.89-35.76-15.05-73.64-2.36-90.05,30.13-12.39,24.54-8.81,52.79,9.36,73.73,18.8,21.67,47.49,28.67,74.89,18.28,10.01-3.8,20.27-9.28,31.13-15.09,5.63-3.01,11.41-6.1,17.45-9.14,7.79-3.9,17.05-3.51,24.46,1.06,7.42,4.57,11.93,12.66,11.93,21.37v257.89c0,13.87-11.24,25.11-25.11,25.11h-216.2c20.75,43.49,20.04,82.54-2.11,119.07-22.63,37.33-58.35,57.57-97.66,57.57ZM50.22,960.96h229.51c8.44,0,16.31,4.24,20.96,11.28,4.65,7.04,5.45,15.95,2.13,23.71-3.15,7.36-6.43,14.37-9.62,21.18-6.27,13.37-11.68,24.92-14.78,36.47-8.56,31.95,7.41,64.16,37.99,76.57,33.71,13.68,64.92,3.43,83.59-27.37,14.04-23.17,12.88-47.33-3.78-78.32-2.8-5.21-5.8-10.32-9.33-16.36l-6.37-10.93c-4.47-7.77-4.47-17.34.02-25.1s12.78-12.55,21.74-12.55h233.86v-191.41c-5.5,2.66-11.13,5.17-16.94,7.38-46.87,17.78-98.16,5.1-130.64-32.32-31.8-36.64-38.03-86.18-16.25-129.29,28.65-56.71,93.55-79.34,154.35-53.79,3.75,1.58,7.38,3.26,10.94,5.03,0-15.19-.04-30.39-.07-45.58-.1-47.9-.21-97.41.44-146.22-139.23.1-280.72-.25-417.57-.59l-170.18-.4v588.61Z"/>
  <path class="cls-1" d="M680.95,1010.34c-11.18,0-25.25-1.45-35.88-12.19-10.86-10.98-11.94-25.64-11.81-35.72.71-51.41.59-103.79.48-154.44-.03-13.56-.06-27.13-.08-40.69-9.53,4.59-19.07,8.75-29.32,12.03-48.32,15.45-98.87-2.12-128.8-44.79-27.82-39.67-28-91.49-.46-132.03,28.4-41.82,79.2-60.36,126.38-46.16,11.07,3.34,21.35,7.72,31.61,12.57v-216.78c0-13.87,11.24-25.11,25.11-25.11h262.17c8.69,0,16.76,4.49,21.35,11.88,4.58,7.39,5.01,16.62,1.15,24.4-3.47,6.98-7.11,13.78-10.71,20.51-7.28,13.6-14.16,26.44-18.63,39.32-9.03,26.02.14,55.04,22.82,72.21,22.01,16.67,51.37,17.97,74.78,3.34,28.99-18.13,38.89-52.76,24.64-86.16-4.28-10.03-10.42-20.14-16.93-30.85-3.35-5.52-6.76-11.14-10.08-16.97-4.42-7.77-4.38-17.31.12-25.05,4.49-7.73,12.76-12.49,21.71-12.49h262.12c13.87,0,25.11,11.24,25.11,25.11v216.07c2.93-1.52,5.92-2.97,9-4.34,39.02-17.38,82.72-15.04,116.88,6.3,32.27,20.14,51.56,53.87,52.93,92.52,1.43,40.59-15.87,76.95-47.47,99.77-32.23,23.26-73.29,28.21-112.66,13.61-5.89-2.19-11.54-4.76-17.02-7.53v214.68c0,13.29-10.36,24.28-23.63,25.07-3.43.21-6.6.44-9.58.66-6.4.47-12.44.91-18.76.91h-162.55c-141.23-.03-282.41-.04-423.6.36h-.37ZM658.76,701.73c4.7,0,9.38,1.32,13.47,3.92,7.25,4.61,11.64,12.6,11.64,21.19v23.75c0,19.09.04,38.18.09,57.28.11,49.87.23,101.4-.44,152.24,140.47-.38,280.96-.36,421.41-.35h162.53c.59,0,1.17,0,1.76-.02v-233.71c0-8.81,4.62-16.98,12.17-21.52,7.55-4.54,16.94-4.79,24.72-.66,6.23,3.31,12.13,6.69,17.86,9.99,10.97,6.3,20.44,11.74,29.97,15.27,23.41,8.69,47.38,6.05,65.78-7.24,17.79-12.84,27.51-33.71,26.68-57.27-.77-21.69-11.46-40.54-29.34-51.7-19.98-12.47-46.08-13.6-69.85-3.02-8.24,3.67-16.49,8.67-26.05,14.45-5.06,3.07-10.34,6.26-16.01,9.51-7.77,4.45-17.32,4.43-25.07-.07-7.75-4.49-12.52-12.77-12.52-21.72v-234.66h-193.11c2.68,4.98,5.21,10.1,7.47,15.41,23.97,56.16,5.79,117.21-44.2,148.47-41.24,25.78-92.95,23.48-131.72-5.88-40.09-30.35-56.14-82.08-39.95-128.72,3.57-10.27,8.04-20.01,12.8-29.42h-195.56v231.71c0,8.54-4.34,16.5-11.53,21.12-7.19,4.63-16.23,5.28-24,1.73-7.64-3.48-14.91-7.07-21.97-10.56-14.16-7.01-26.4-13.06-38.82-16.79-26.07-7.86-54.35,2.72-70.36,26.28-15.7,23.12-15.69,52.54.03,74.97,17.3,24.65,45.05,34.55,72.38,25.79,11.96-3.83,23.79-9.81,37.48-16.74,6.91-3.5,14.04-7.11,21.59-10.64,3.38-1.59,7.03-2.37,10.66-2.37Z"/>
  <path class="cls-1" d="M1606.63,1180.88c-22.46,0-45.01-6.74-64.82-20.23-41.06-27.97-59.27-77.96-45.33-124.4,3.2-10.64,7.37-20.51,11.99-30.36h-211.1c-13.87,0-25.11-11.24-25.11-25.11v-256.98c0-8.7,4.5-16.77,11.89-21.35,7.4-4.58,16.63-5,24.41-1.13,6.82,3.39,13.47,6.96,20.05,10.5,13.28,7.13,25.82,13.87,38.37,18.24,25.2,8.76,53.29-.14,69.92-22.18,16.18-21.43,17.45-50,3.24-72.8-17.57-28.17-51.12-37.79-83.5-23.93-9.78,4.18-19.65,10.2-30.11,16.56-5.39,3.28-10.88,6.62-16.58,9.88-7.78,4.44-17.32,4.39-25.06-.09-7.74-4.5-12.5-12.77-12.5-21.72v-256.93c0-13.87,11.24-25.11,25.11-25.11h210.37c-1.36-2.66-2.66-5.36-3.89-8.14-17.09-38.46-14.74-81.51,6.28-115.14,19.81-31.69,52.92-50.64,90.84-51.98,39.89-1.34,75.5,15.57,97.92,46.6,22.93,31.74,27.85,72.2,13.47,111.01-2.05,5.54-4.45,10.86-7.03,16.03h209.02c13.3,0,24.29,10.36,25.07,23.64.2,3.38.43,6.49.64,9.43.49,6.65.89,12.5.9,18.36v157.23c-.01,139.11-.03,278.22.35,417.34.03,11.12-1.32,25.24-12.1,35.91-10.89,10.77-25.35,11.81-35.31,11.7-50.1-.69-101.17-.57-150.55-.47-13.12.03-26.25.06-39.37.07,4.37,9.13,8.32,18.29,11.45,28.11,15.18,47.55-2.08,97.31-43.98,126.77-19.6,13.79-42.23,20.68-64.95,20.68ZM1322.48,955.66h225.97c8.54,0,16.49,4.34,21.11,11.52,4.62,7.18,5.28,16.21,1.75,23.99-3.41,7.49-6.92,14.63-10.34,21.56-6.84,13.87-12.75,25.84-16.39,37.97-7.62,25.37,2.63,52.87,25.49,68.45,22.39,15.25,50.89,15.24,72.61-.02,23.93-16.83,33.51-43.81,25.02-70.42-3.73-11.7-9.57-23.27-16.34-36.68-3.42-6.77-6.95-13.76-10.41-21.16-3.64-7.78-3.05-16.88,1.56-24.12,4.61-7.24,12.6-11.63,21.19-11.63h23.22c18.81,0,37.62-.04,56.43-.08,48.44-.12,98.47-.22,147.84.42-.37-138.22-.35-276.45-.34-414.68v-157.2c0-.41,0-.81,0-1.22h-227.94c-8.81,0-16.98-4.62-21.52-12.16-4.54-7.55-4.8-16.93-.67-24.71,3.24-6.1,6.54-11.88,9.76-17.5,6.15-10.74,11.47-20.02,14.92-29.33,8.46-22.84,5.88-46.22-7.09-64.15-12.45-17.23-32.57-26.62-55.43-25.83-20.97.74-39.2,11.09-50.02,28.4-12.17,19.47-13.28,44.94-2.98,68.13,3.58,8.05,8.46,16.13,14.11,25.48,3,4.96,6.13,10.14,9.3,15.7,4.44,7.77,4.4,17.32-.09,25.06-4.49,7.74-12.77,12.51-21.72,12.51h-228.86v187.91c4.62-2.47,9.36-4.8,14.27-6.9,55.17-23.61,115.16-5.7,145.87,43.53,25.31,40.59,23.04,91.47-5.77,129.64-29.82,39.48-80.68,55.29-126.51,39.35-9.78-3.4-19.04-7.64-28-12.15v190.33Z"/>
</svg>